<mxfile host="app.diagrams.net" modified="2023-04-12T22:24:57.287Z" agent="Mozilla/5.0 (Windows NT 10.0; Win64; x64) AppleWebKit/537.36 (KHTML, like Gecko) Chrome/110.0.0.0 Safari/537.36" etag="BHcB8GCcRJ-o-rXt-0ll" version="21.1.5" type="github">
  <diagram name="Page-1" id="ymRu9CwoQYG3whvbtps9">
    <mxGraphModel dx="4070" dy="2153" grid="1" gridSize="10" guides="1" tooltips="1" connect="1" arrows="1" fold="1" page="1" pageScale="1" pageWidth="2336" pageHeight="1654" math="0" shadow="0">
      <root>
        <mxCell id="0" />
        <mxCell id="1" parent="0" />
        <mxCell id="XrJRbHi9KqOfpcK41WxC-34" style="edgeStyle=orthogonalEdgeStyle;rounded=0;orthogonalLoop=1;jettySize=auto;html=1;exitX=0.5;exitY=1;exitDx=0;exitDy=0;" parent="1" edge="1">
          <mxGeometry relative="1" as="geometry">
            <mxPoint x="255" y="975" as="targetPoint" />
            <mxPoint x="255" y="975" as="sourcePoint" />
          </mxGeometry>
        </mxCell>
        <mxCell id="SecEdTqPEeOKMK3HzcbX-10" style="edgeStyle=orthogonalEdgeStyle;rounded=0;orthogonalLoop=1;jettySize=auto;html=1;exitX=1;exitY=0.5;exitDx=0;exitDy=0;exitPerimeter=0;" edge="1" parent="1" source="XrJRbHi9KqOfpcK41WxC-3" target="XrJRbHi9KqOfpcK41WxC-5">
          <mxGeometry relative="1" as="geometry" />
        </mxCell>
        <mxCell id="XrJRbHi9KqOfpcK41WxC-3" value="" style="outlineConnect=0;dashed=0;verticalLabelPosition=bottom;verticalAlign=top;align=center;html=1;shape=mxgraph.aws3.internet_gateway;fillColor=#F58534;gradientColor=none;" parent="1" vertex="1">
          <mxGeometry x="110" y="600" width="200" height="210" as="geometry" />
        </mxCell>
        <mxCell id="SecEdTqPEeOKMK3HzcbX-9" style="edgeStyle=orthogonalEdgeStyle;rounded=0;orthogonalLoop=1;jettySize=auto;html=1;" edge="1" parent="1" source="XrJRbHi9KqOfpcK41WxC-4" target="XrJRbHi9KqOfpcK41WxC-3">
          <mxGeometry relative="1" as="geometry">
            <Array as="points">
              <mxPoint x="210" y="460" />
              <mxPoint x="210" y="460" />
            </Array>
          </mxGeometry>
        </mxCell>
        <mxCell id="XrJRbHi9KqOfpcK41WxC-4" value="" style="sketch=0;outlineConnect=0;fontColor=#232F3E;gradientColor=none;fillColor=#232F3D;strokeColor=none;dashed=0;verticalLabelPosition=bottom;verticalAlign=top;align=center;html=1;fontSize=12;fontStyle=0;aspect=fixed;pointerEvents=1;shape=mxgraph.aws4.user;" parent="1" vertex="1">
          <mxGeometry x="110" y="180" width="200" height="200" as="geometry" />
        </mxCell>
        <mxCell id="SecEdTqPEeOKMK3HzcbX-17" style="edgeStyle=orthogonalEdgeStyle;rounded=0;orthogonalLoop=1;jettySize=auto;html=1;" edge="1" parent="1" source="XrJRbHi9KqOfpcK41WxC-5">
          <mxGeometry relative="1" as="geometry">
            <mxPoint x="730" y="705" as="targetPoint" />
          </mxGeometry>
        </mxCell>
        <mxCell id="XrJRbHi9KqOfpcK41WxC-5" value="" style="sketch=0;html=1;aspect=fixed;strokeColor=none;shadow=0;fillColor=#3B8DF1;verticalAlign=top;labelPosition=center;verticalLabelPosition=bottom;shape=mxgraph.gcp2.website;points=[[0.5,1,0,0,0]];flipH=0;" parent="1" vertex="1">
          <mxGeometry x="425" y="610" width="200" height="190" as="geometry" />
        </mxCell>
        <mxCell id="SecEdTqPEeOKMK3HzcbX-13" style="edgeStyle=orthogonalEdgeStyle;rounded=0;orthogonalLoop=1;jettySize=auto;html=1;" edge="1" parent="1" source="XrJRbHi9KqOfpcK41WxC-6" target="XrJRbHi9KqOfpcK41WxC-13">
          <mxGeometry relative="1" as="geometry" />
        </mxCell>
        <mxCell id="SecEdTqPEeOKMK3HzcbX-14" style="edgeStyle=orthogonalEdgeStyle;rounded=0;orthogonalLoop=1;jettySize=auto;html=1;exitX=1;exitY=0.75;exitDx=0;exitDy=0;exitPerimeter=0;" edge="1" parent="1" source="XrJRbHi9KqOfpcK41WxC-6" target="XrJRbHi9KqOfpcK41WxC-12">
          <mxGeometry relative="1" as="geometry" />
        </mxCell>
        <mxCell id="XrJRbHi9KqOfpcK41WxC-6" value="" style="sketch=0;points=[[0,0,0],[0.25,0,0],[0.5,0,0],[0.75,0,0],[1,0,0],[0,1,0],[0.25,1,0],[0.5,1,0],[0.75,1,0],[1,1,0],[0,0.25,0],[0,0.5,0],[0,0.75,0],[1,0.25,0],[1,0.5,0],[1,0.75,0]];outlineConnect=0;fontColor=#232F3E;gradientColor=#945DF2;gradientDirection=north;fillColor=#5A30B5;strokeColor=#ffffff;dashed=0;verticalLabelPosition=bottom;verticalAlign=top;align=center;html=1;fontSize=12;fontStyle=0;aspect=fixed;shape=mxgraph.aws4.resourceIcon;resIcon=mxgraph.aws4.cloudfront;flipH=0;" parent="1" vertex="1">
          <mxGeometry x="1055" y="600" width="200" height="200" as="geometry" />
        </mxCell>
        <mxCell id="XrJRbHi9KqOfpcK41WxC-7" value="User" style="text;html=1;align=center;verticalAlign=middle;resizable=0;points=[];autosize=1;strokeColor=none;fillColor=none;fontSize=36;" parent="1" vertex="1">
          <mxGeometry x="170" y="90" width="100" height="60" as="geometry" />
        </mxCell>
        <mxCell id="XrJRbHi9KqOfpcK41WxC-8" value="Internet" style="text;html=1;align=center;verticalAlign=middle;resizable=0;points=[];autosize=1;strokeColor=none;fillColor=none;fontSize=36;" parent="1" vertex="1">
          <mxGeometry x="120" y="490" width="150" height="60" as="geometry" />
        </mxCell>
        <mxCell id="XrJRbHi9KqOfpcK41WxC-9" value="Cloudfront" style="text;html=1;align=center;verticalAlign=middle;resizable=0;points=[];autosize=1;strokeColor=none;fillColor=none;fontSize=36;" parent="1" vertex="1">
          <mxGeometry x="1060" y="890" width="190" height="60" as="geometry" />
        </mxCell>
        <mxCell id="XrJRbHi9KqOfpcK41WxC-10" value="connersmith.net&lt;br style=&quot;font-size: 36px;&quot;&gt;webpage" style="text;html=1;align=center;verticalAlign=middle;resizable=0;points=[];autosize=1;strokeColor=none;fillColor=none;fontSize=36;" parent="1" vertex="1">
          <mxGeometry x="370" y="880" width="280" height="100" as="geometry" />
        </mxCell>
        <mxCell id="SecEdTqPEeOKMK3HzcbX-12" style="edgeStyle=orthogonalEdgeStyle;rounded=0;orthogonalLoop=1;jettySize=auto;html=1;" edge="1" parent="1" source="XrJRbHi9KqOfpcK41WxC-11" target="XrJRbHi9KqOfpcK41WxC-6">
          <mxGeometry relative="1" as="geometry" />
        </mxCell>
        <mxCell id="XrJRbHi9KqOfpcK41WxC-11" value="" style="sketch=0;points=[[0,0,0],[0.25,0,0],[0.5,0,0],[0.75,0,0],[1,0,0],[0,1,0],[0.25,1,0],[0.5,1,0],[0.75,1,0],[1,1,0],[0,0.25,0],[0,0.5,0],[0,0.75,0],[1,0.25,0],[1,0.5,0],[1,0.75,0]];outlineConnect=0;fontColor=#232F3E;gradientColor=#945DF2;gradientDirection=north;fillColor=#5A30B5;strokeColor=#ffffff;dashed=0;verticalLabelPosition=bottom;verticalAlign=top;align=center;html=1;fontSize=12;fontStyle=0;aspect=fixed;shape=mxgraph.aws4.resourceIcon;resIcon=mxgraph.aws4.route_53;flipH=0;" parent="1" vertex="1">
          <mxGeometry x="740" y="600" width="200" height="200" as="geometry" />
        </mxCell>
        <mxCell id="XrJRbHi9KqOfpcK41WxC-12" value="" style="sketch=0;points=[[0,0,0],[0.25,0,0],[0.5,0,0],[0.75,0,0],[1,0,0],[0,1,0],[0.25,1,0],[0.5,1,0],[0.75,1,0],[1,1,0],[0,0.25,0],[0,0.5,0],[0,0.75,0],[1,0.25,0],[1,0.5,0],[1,0.75,0]];outlineConnect=0;fontColor=#232F3E;gradientColor=#60A337;gradientDirection=north;fillColor=#277116;strokeColor=#ffffff;dashed=0;verticalLabelPosition=bottom;verticalAlign=top;align=center;html=1;fontSize=12;fontStyle=0;aspect=fixed;shape=mxgraph.aws4.resourceIcon;resIcon=mxgraph.aws4.s3;" parent="1" vertex="1">
          <mxGeometry x="1490" y="810" width="200" height="200" as="geometry" />
        </mxCell>
        <mxCell id="SecEdTqPEeOKMK3HzcbX-15" style="edgeStyle=orthogonalEdgeStyle;rounded=0;orthogonalLoop=1;jettySize=auto;html=1;" edge="1" parent="1" source="XrJRbHi9KqOfpcK41WxC-13" target="XrJRbHi9KqOfpcK41WxC-14">
          <mxGeometry relative="1" as="geometry" />
        </mxCell>
        <mxCell id="XrJRbHi9KqOfpcK41WxC-13" value="" style="sketch=0;points=[[0,0,0],[0.25,0,0],[0.5,0,0],[0.75,0,0],[1,0,0],[0,1,0],[0.25,1,0],[0.5,1,0],[0.75,1,0],[1,1,0],[0,0.25,0],[0,0.5,0],[0,0.75,0],[1,0.25,0],[1,0.5,0],[1,0.75,0]];outlineConnect=0;fontColor=#232F3E;gradientColor=#945DF2;gradientDirection=north;fillColor=#5A30B5;strokeColor=#ffffff;dashed=0;verticalLabelPosition=bottom;verticalAlign=top;align=center;html=1;fontSize=12;fontStyle=0;aspect=fixed;shape=mxgraph.aws4.resourceIcon;resIcon=mxgraph.aws4.api_gateway;" parent="1" vertex="1">
          <mxGeometry x="1291" y="320" width="200" height="200" as="geometry" />
        </mxCell>
        <mxCell id="SecEdTqPEeOKMK3HzcbX-16" style="edgeStyle=orthogonalEdgeStyle;rounded=0;orthogonalLoop=1;jettySize=auto;html=1;" edge="1" parent="1" source="XrJRbHi9KqOfpcK41WxC-14" target="XrJRbHi9KqOfpcK41WxC-15">
          <mxGeometry relative="1" as="geometry" />
        </mxCell>
        <mxCell id="XrJRbHi9KqOfpcK41WxC-14" value="" style="sketch=0;points=[[0,0,0],[0.25,0,0],[0.5,0,0],[0.75,0,0],[1,0,0],[0,1,0],[0.25,1,0],[0.5,1,0],[0.75,1,0],[1,1,0],[0,0.25,0],[0,0.5,0],[0,0.75,0],[1,0.25,0],[1,0.5,0],[1,0.75,0]];outlineConnect=0;fontColor=#232F3E;gradientColor=#F78E04;gradientDirection=north;fillColor=#D05C17;strokeColor=#ffffff;dashed=0;verticalLabelPosition=bottom;verticalAlign=top;align=center;html=1;fontSize=12;fontStyle=0;aspect=fixed;shape=mxgraph.aws4.resourceIcon;resIcon=mxgraph.aws4.lambda;" parent="1" vertex="1">
          <mxGeometry x="1646" y="320" width="200" height="200" as="geometry" />
        </mxCell>
        <mxCell id="XrJRbHi9KqOfpcK41WxC-15" value="" style="sketch=0;points=[[0,0,0],[0.25,0,0],[0.5,0,0],[0.75,0,0],[1,0,0],[0,1,0],[0.25,1,0],[0.5,1,0],[0.75,1,0],[1,1,0],[0,0.25,0],[0,0.5,0],[0,0.75,0],[1,0.25,0],[1,0.5,0],[1,0.75,0]];outlineConnect=0;fontColor=#232F3E;gradientColor=#4D72F3;gradientDirection=north;fillColor=#3334B9;strokeColor=#ffffff;dashed=0;verticalLabelPosition=bottom;verticalAlign=top;align=center;html=1;fontSize=12;fontStyle=0;aspect=fixed;shape=mxgraph.aws4.resourceIcon;resIcon=mxgraph.aws4.dynamodb;" parent="1" vertex="1">
          <mxGeometry x="2000" y="320" width="200" height="200" as="geometry" />
        </mxCell>
        <mxCell id="XrJRbHi9KqOfpcK41WxC-16" value="Route 53 Hosted Zone" style="text;html=1;align=center;verticalAlign=middle;resizable=0;points=[];autosize=1;strokeColor=none;fillColor=none;fontSize=36;" parent="1" vertex="1">
          <mxGeometry x="645" y="490" width="390" height="60" as="geometry" />
        </mxCell>
        <mxCell id="XrJRbHi9KqOfpcK41WxC-17" value="S3 Bucket" style="text;html=1;align=center;verticalAlign=middle;resizable=0;points=[];autosize=1;strokeColor=none;fillColor=none;fontSize=36;" parent="1" vertex="1">
          <mxGeometry x="1495" y="1070" width="190" height="60" as="geometry" />
        </mxCell>
        <mxCell id="XrJRbHi9KqOfpcK41WxC-18" value="API Gateway" style="text;html=1;align=center;verticalAlign=middle;resizable=0;points=[];autosize=1;strokeColor=none;fillColor=none;fontSize=36;" parent="1" vertex="1">
          <mxGeometry x="1279" y="220" width="230" height="60" as="geometry" />
        </mxCell>
        <mxCell id="XrJRbHi9KqOfpcK41WxC-19" value="Lambda" style="text;html=1;align=center;verticalAlign=middle;resizable=0;points=[];autosize=1;strokeColor=none;fillColor=none;fontSize=36;" parent="1" vertex="1">
          <mxGeometry x="1671" y="540" width="150" height="60" as="geometry" />
        </mxCell>
        <mxCell id="XrJRbHi9KqOfpcK41WxC-20" value="DynamoDB" style="text;html=1;align=center;verticalAlign=middle;resizable=0;points=[];autosize=1;strokeColor=none;fillColor=none;fontSize=36;" parent="1" vertex="1">
          <mxGeometry x="1995" y="220" width="210" height="60" as="geometry" />
        </mxCell>
        <mxCell id="XrJRbHi9KqOfpcK41WxC-29" value="&lt;h1 style=&quot;font-size: 30px;&quot;&gt;Connecting to my website&lt;/h1&gt;&lt;div style=&quot;font-size: 30px;&quot;&gt;The user will type in my website&#39;s custom domain name &quot;connersmith.net&quot; which is registered with Route53&lt;/div&gt;" style="text;html=1;strokeColor=none;fillColor=none;spacing=5;spacingTop=-20;whiteSpace=wrap;overflow=hidden;rounded=0;fontSize=30;" parent="1" vertex="1">
          <mxGeometry x="310" y="30" width="460" height="180" as="geometry" />
        </mxCell>
        <mxCell id="XrJRbHi9KqOfpcK41WxC-30" value="&lt;h1 style=&quot;font-size: 30px;&quot;&gt;&lt;font style=&quot;font-size: 30px;&quot;&gt;Routing&lt;/font&gt;&lt;/h1&gt;&lt;div style=&quot;font-size: 30px;&quot;&gt;&lt;font style=&quot;font-size: 30px;&quot;&gt;Their ISP will route them to the webpage using DNS, which will find my webpage being distributed by Cloudfront globally&lt;/font&gt;&lt;/div&gt;" style="text;html=1;strokeColor=none;fillColor=none;spacing=5;spacingTop=-20;whiteSpace=wrap;overflow=hidden;rounded=0;fontSize=30;" parent="1" vertex="1">
          <mxGeometry x="844" y="1100" width="665" height="260" as="geometry" />
        </mxCell>
        <mxCell id="XrJRbHi9KqOfpcK41WxC-31" value="&lt;h1 style=&quot;font-size: 30px;&quot;&gt;The Webpage&lt;/h1&gt;&lt;div style=&quot;font-size: 30px;&quot;&gt;The website hosts all of its static files within an S3 bucket, which is served to the webpage&lt;/div&gt;&lt;div style=&quot;font-size: 30px;&quot;&gt;&lt;br style=&quot;font-size: 30px;&quot;&gt;&lt;/div&gt;&lt;div style=&quot;font-size: 30px;&quot;&gt;The website also contains a dynamic visitor counter which is served with API Gateway&lt;/div&gt;&lt;div style=&quot;font-size: 30px;&quot;&gt;&lt;br style=&quot;font-size: 30px;&quot;&gt;&lt;/div&gt;" style="text;html=1;strokeColor=none;fillColor=none;spacing=5;spacingTop=-20;whiteSpace=wrap;overflow=hidden;rounded=0;fontSize=30;" parent="1" vertex="1">
          <mxGeometry x="30" y="1100" width="700" height="290" as="geometry" />
        </mxCell>
        <mxCell id="XrJRbHi9KqOfpcK41WxC-32" value="&lt;h1 style=&quot;font-size: 30px;&quot;&gt;API&lt;/h1&gt;&lt;div style=&quot;font-size: 30px;&quot;&gt;Whenever a user connects to the webpage, a script will make an API call to my API gateway. This will trigger a Lambda function that is listening for this event.&lt;/div&gt;" style="text;html=1;strokeColor=none;fillColor=none;spacing=5;spacingTop=-20;whiteSpace=wrap;overflow=hidden;rounded=0;fontSize=30;" parent="1" vertex="1">
          <mxGeometry x="764" y="230" width="515" height="200" as="geometry" />
        </mxCell>
        <mxCell id="XrJRbHi9KqOfpcK41WxC-36" value="&lt;h1 style=&quot;font-size: 30px;&quot;&gt;Lambda&lt;/h1&gt;&lt;div style=&quot;font-size: 30px;&quot;&gt;The lambda function accesses a DynamoDB table that is being used to store the # of visitors that have visited the webpage.&lt;/div&gt;" style="text;html=1;strokeColor=none;fillColor=none;spacing=5;spacingTop=-20;whiteSpace=wrap;overflow=hidden;rounded=0;fontSize=30;" parent="1" vertex="1">
          <mxGeometry x="1539" y="30" width="461" height="238" as="geometry" />
        </mxCell>
        <mxCell id="XrJRbHi9KqOfpcK41WxC-39" value="&lt;h1 style=&quot;font-size: 30px;&quot;&gt;DynamoDB&lt;/h1&gt;&lt;div style=&quot;font-size: 30px;&quot;&gt;The Lambda function will increase the count of the of the visitor total by one, and then serve the new value to be returned to API Gateway, and then back to the webpage, for the counter to be updated.&lt;/div&gt;" style="text;html=1;strokeColor=none;fillColor=none;spacing=5;spacingTop=-20;whiteSpace=wrap;overflow=hidden;rounded=0;fontSize=30;" parent="1" vertex="1">
          <mxGeometry x="1790" y="650" width="507" height="315" as="geometry" />
        </mxCell>
      </root>
    </mxGraphModel>
  </diagram>
</mxfile>
